<svg xmlns="http://www.w3.org/2000/svg" viewBox="0 0 408.39 693.6"><defs><style>.cls-1{fill:#a67c52;}.cls-2{fill:#fff;}.cls-3,.cls-6{fill:none;}.cls-3{stroke:#f7931e;stroke-width:7px;}.cls-3,.cls-4,.cls-6{stroke-miterlimit:10;}.cls-4,.cls-6{stroke:#000;}.cls-5{fill:#603b26;}.cls-6{stroke-width:8px;}.cls-7{font-size:36px;font-family:Verdana-Bold, Verdana;font-weight:700;}</style></defs><title>Обозначение</title><g id="Слой_2" data-name="Слой 2"><g id="Слой_1-2" data-name="Слой 1"><rect class="cls-1" x="63.14" y="57.27" width="345.24" height="535.01" rx="162.59"/><rect class="cls-2" x="70.73" y="63.46" width="329.66" height="522.03" rx="155.6"/><path class="cls-3" d="M153.79,500.55c.75-2.38,6.9-21.46,14.26-21.21,8,.27,10.87,21.51,18.15,21.59,8.1.1,8.27-21.11,16.37-21s7.94,21.3,16,21.4,8.27-21.11,16.37-21,7.94,21.3,16,21.39,8.27-21.11,16.37-21,7.94,21.3,16,21.4,11.4-20.72,19.51-20.63c7.05.09,12,17.72,12.91,21,1.15,4.23,19.07,74.55-28.66,112a88,88,0,0,1-50.05,18.28c-4.2.14-31.29.59-55.51-18.28C141.49,583.15,145.48,527,153.79,500.55Z"/><rect class="cls-4" x="0.5" y="292.51" width="104.06" height="6.16"/><rect class="cls-4" x="121.57" y="292.31" width="42.53" height="6.37"/><rect class="cls-4" x="180.35" y="292.31" width="42.53" height="6.37"/><rect class="cls-4" x="237.88" y="292.31" width="42.53" height="6.37"/><rect class="cls-4" x="295.67" y="292.31" width="42.53" height="6.37"/><rect class="cls-4" x="353.2" y="292.31" width="42.53" height="6.37"/><rect class="cls-5" x="149.37" y="110.63" width="179.19" height="8.76"/><rect class="cls-5" x="182.64" y="51.24" width="111.96" height="9.48" transform="translate(294.59 -182.64) rotate(90)"/><path class="cls-6" d="M131,513.9c.2-11.26,2.4-43.27,27.63-67.22,38.89-36.91,112-35.25,150.88,1.18,24.42,22.89,28.26,52.63,28.91,64V660"/><text class="cls-7" transform="translate(49.77 682.68)"> </text></g></g></svg>