<svg xmlns="http://www.w3.org/2000/svg" xmlns:xlink="http://www.w3.org/1999/xlink" viewBox="0 0 408.39 693.6"><defs><style>.cls-1{fill:#a67c52;}.cls-2{fill:#fff;}.cls-3,.cls-6,.cls-8{fill:none;}.cls-3{stroke:#f7931e;stroke-width:7px;}.cls-3,.cls-4,.cls-6,.cls-8{stroke-miterlimit:10;}.cls-4,.cls-6,.cls-8{stroke:#000;}.cls-5{fill:#603b26;}.cls-6{stroke-width:3px;}.cls-7{opacity:0.28;fill:url(#Лето);}.cls-8{stroke-width:8px;}.cls-9{font-size:36px;font-family:Verdana-Bold, Verdana;font-weight:700;}.cls-10{fill:#c1272d;}.cls-11{fill:blue;opacity:0.61;}</style><radialGradient id="Лето" cx="237.75" cy="293.21" r="116.7" gradientUnits="userSpaceOnUse"><stop offset="0" stop-color="#fff"/><stop offset="0.09" stop-color="#ffedd8"/><stop offset="0.21" stop-color="#ffd5a7"/><stop offset="0.33" stop-color="#ffc17d"/><stop offset="0.46" stop-color="#ffb05b"/><stop offset="0.59" stop-color="#ffa340"/><stop offset="0.72" stop-color="#ff9a2d"/><stop offset="0.86" stop-color="#ff9522"/><stop offset="1" stop-color="#ff931e"/></radialGradient></defs><title>Ресурс 2</title><g id="Слой_2" data-name="Слой 2"><g id="Слой_1-2" data-name="Слой 1"><rect class="cls-1" x="63.14" y="57.27" width="345.24" height="535.01" rx="162.59"/><rect class="cls-2" x="70.73" y="63.46" width="329.66" height="522.03" rx="155.6"/><path class="cls-3" d="M153.79,500.55c.75-2.38,6.9-21.46,14.26-21.21,8,.27,10.87,21.51,18.15,21.59,8.1.1,8.27-21.11,16.37-21s7.94,21.3,16,21.4,8.27-21.11,16.37-21,7.94,21.3,16,21.39,8.27-21.11,16.37-21,7.94,21.3,16,21.4,11.4-20.72,19.51-20.63c7.05.09,12,17.72,12.91,21,1.15,4.23,19.07,74.55-28.66,112a88,88,0,0,1-50.05,18.28c-4.2.14-31.29.59-55.51-18.28C141.49,583.15,145.48,527,153.79,500.55Z"/><rect class="cls-4" x="0.5" y="284.51" width="104.06" height="6.16"/><rect class="cls-4" x="119.57" y="284.31" width="42.53" height="6.37"/><rect class="cls-4" x="178.35" y="284.31" width="42.53" height="6.37"/><rect class="cls-4" x="235.88" y="284.31" width="42.53" height="6.37"/><rect class="cls-4" x="294.67" y="284.31" width="42.53" height="6.37"/><rect class="cls-4" x="352.2" y="284.31" width="42.53" height="6.37"/><rect class="cls-5" x="149.37" y="110.63" width="179.19" height="8.76"/><rect class="cls-5" x="182.64" y="51.24" width="111.96" height="9.48" transform="translate(294.59 -182.64) rotate(90)"/><path class="cls-6" d="M181.2,394.73c-3.21-6.67-9.65-11.11-16.25-11.23-8.46-.14-16,6.84-16.52,16.53"/><polygon class="cls-4" points="183.65 404.41 186.31 391.26 173.55 395.43 183.65 404.41"/><path class="cls-6" d="M293.21,375.26c2.71-6.66,8.14-11.1,13.72-11.22,7.14-.14,13.48,6.84,13.95,16.53"/><polygon class="cls-4" points="291.14 384.95 288.89 371.79 299.66 375.97 291.14 384.95"/><ellipse class="cls-7" cx="237.75" cy="293.21" rx="147.77" ry="73.5"/><path class="cls-8" d="M131,513.9c.2-11.26,2.4-43.27,27.63-67.22,38.89-36.91,112-35.25,150.88,1.18,24.42,22.89,28.26,52.63,28.91,64V660"/><text class="cls-9" transform="translate(49.77 682.68)"> </text><rect class="cls-10" x="2.88" y="243.45" width="49.68" height="10.41"/><rect class="cls-10" x="3" y="243.42" width="49.44" height="10.47" transform="translate(276.37 220.93) rotate(90)"/><ellipse class="cls-11" cx="256.75" cy="351.2" rx="18.34" ry="17.47"/><rect class="cls-2" x="245.88" y="348.41" width="22" height="6" rx="2.4"/><ellipse class="cls-11" cx="148.11" cy="417.46" rx="18.34" ry="17.47"/><rect class="cls-2" x="137.24" y="414.67" width="22" height="6" rx="2.4"/><ellipse class="cls-11" cx="319.71" cy="397.14" rx="18.34" ry="17.47"/><rect class="cls-2" x="308.84" y="394.35" width="22" height="6" rx="2.4"/><ellipse class="cls-11" cx="315.71" cy="199.14" rx="18.34" ry="17.47"/><rect class="cls-2" x="304.84" y="196.35" width="22" height="6" rx="2.4"/><ellipse class="cls-11" cx="239.71" cy="175.14" rx="18.34" ry="17.47"/><rect class="cls-2" x="228.84" y="172.35" width="22" height="6" rx="2.4"/><ellipse class="cls-11" cx="170.71" cy="336.14" rx="18.34" ry="17.47"/><rect class="cls-2" x="159.84" y="333.35" width="22" height="6" rx="2.4"/><line class="cls-6" x1="256.38" y1="313.91" x2="256.38" y2="333.91"/><polygon class="cls-4" points="256.24 306.25 249.37 317.78 262.78 318.08 256.24 306.25"/><line class="cls-6" x1="171.38" y1="302.41" x2="171.38" y2="318.91"/><polygon class="cls-4" points="171.24 294.75 164.37 306.28 177.78 306.58 171.24 294.75"/><ellipse class="cls-11" cx="161.71" cy="196.14" rx="18.34" ry="17.47"/><rect class="cls-2" x="150.84" y="193.35" width="22" height="6" rx="2.4"/><line class="cls-6" x1="161.38" y1="160.41" x2="161.38" y2="178.91"/><polygon class="cls-4" points="161.24 148.75 154.37 160.28 167.78 160.58 161.24 148.75"/><line class="cls-6" x1="240.38" y1="139.41" x2="240.38" y2="157.91"/><polygon class="cls-4" points="240.24 130.75 233.37 142.28 246.78 142.58 240.24 130.75"/><line class="cls-6" x1="315.38" y1="165.41" x2="315.38" y2="181.91"/><polygon class="cls-4" points="315.24 154.75 308.37 166.28 321.78 166.58 315.24 154.75"/></g></g></svg>