<svg xmlns="http://www.w3.org/2000/svg" viewBox="0 0 271.97 486.5"><defs><style>.cls-1,.cls-10,.cls-11{font-size:48.3px;}.cls-1,.cls-10,.cls-11,.cls-12,.cls-2,.cls-3,.cls-4,.cls-5,.cls-6,.cls-7{font-family:Verdana;}.cls-2{font-size:29.99px;}.cls-3{font-size:38.59px;}.cls-4{font-size:50.82px;letter-spacing:0em;}.cls-5{font-size:34.86px;}.cls-6{font-size:49.61px;}.cls-7{font-size:24.8px;}.cls-8{fill:none;stroke:#000;stroke-miterlimit:10;}.cls-9{font-size:52.08px;}.cls-13,.cls-9{font-family:MyriadPro-Regular, Myriad Pro;}.cls-10{letter-spacing:0em;}.cls-11{letter-spacing:-0.01em;}.cls-12{font-size:24.15px;}.cls-13{font-size:24px;}</style></defs><title>Ресурс 7</title><g id="Слой_2" data-name="Слой 2"><g id="Слой_1-2" data-name="Слой 1"><text/><text class="cls-1" transform="translate(31.35 82.91) scale(0.88 1)">S = </text><text/><text class="cls-2" transform="translate(212.35 50.43) scale(1.14 1)">A</text><text class="cls-3" transform="translate(167.31 43.89) scale(0.9 1)">Δ</text><text class="cls-4" transform="translate(191.73 43.89) scale(0.99 1)">I</text><text class="cls-5" transform="translate(159.39 121.8) scale(0.94 1)">Δ</text><text class="cls-6" transform="translate(182.4 121.8) scale(1.07 1)">U</text><text class="cls-7" transform="translate(217.36 128.56) scale(1.06 1)">C</text><line class="cls-8" x1="130.9" y1="67.92" x2="270.81" y2="67.92"/><text class="cls-9" transform="translate(33.29 247.89) scale(1.09 1)">μ </text><text class="cls-10" transform="translate(76.74 247.89) scale(0.88 1)">= </text><text/><text class="cls-11" transform="translate(131.08 248.13) scale(0.98 1)">R </text><text class="cls-12" transform="translate(165.05 261.49) scale(0.98 1)">C</text><text class="cls-1" transform="translate(228.11 247.77) scale(0.88 1)">S </text><text class="cls-1" transform="translate(187.78 258.83) scale(0.88 1)">*</text><text class="cls-1" transform="translate(30.04 431.08) scale(0.88 1)">R = </text><text/><text class="cls-2" transform="translate(204.03 470.6) scale(1.14 1)">A</text><text class="cls-3" transform="translate(158.99 464.06) scale(0.9 1)">Δ</text><text class="cls-4" transform="translate(183.41 464.06) scale(0.99 1)">I</text><text class="cls-5" transform="translate(159.07 393.97) scale(0.94 1)">Δ</text><text class="cls-6" transform="translate(182.08 393.97) scale(1.07 1)">U</text><text class="cls-2" transform="translate(217.04 400.73) scale(1.14 1)">A</text><line class="cls-8" x1="129.58" y1="416.09" x2="269.49" y2="416.09"/><text class="cls-13" transform="translate(64.3 445.44)">i</text></g></g></svg>