<svg xmlns="http://www.w3.org/2000/svg" viewBox="0 0 347 534.54"><defs><style>.cls-1{fill:#e9f244;opacity:0.37;}.cls-11,.cls-12,.cls-2{font-size:48.3px;}.cls-11,.cls-12,.cls-13,.cls-2,.cls-3,.cls-4,.cls-5,.cls-6,.cls-7,.cls-8{font-family:Verdana;}.cls-3{font-size:29.99px;}.cls-4{font-size:38.59px;}.cls-5{font-size:50.82px;letter-spacing:0em;}.cls-6{font-size:34.86px;}.cls-7{font-size:49.61px;}.cls-8{font-size:24.8px;}.cls-9{fill:none;stroke:#000;stroke-miterlimit:10;}.cls-10{font-size:52.08px;}.cls-10,.cls-14{font-family:MyriadPro-Regular, Myriad Pro;}.cls-11{letter-spacing:0em;}.cls-12{letter-spacing:-0.01em;}.cls-13{font-size:24.15px;}.cls-14{font-size:24px;}</style></defs><title>Ресурс 6</title><g id="Слой_2" data-name="Слой 2"><g id="Слой_1-2" data-name="Слой 1"><text/><rect class="cls-1" width="347" height="534.54"/><text class="cls-2" transform="translate(52.3 107.51) scale(0.88 1)">S = </text><text/><text class="cls-3" transform="translate(233.3 75.03) scale(1.14 1)">A</text><text class="cls-4" transform="translate(188.25 68.49) scale(0.9 1)">Δ</text><text class="cls-5" transform="translate(212.68 68.49) scale(0.99 1)">I</text><text class="cls-6" transform="translate(180.34 146.39) scale(0.94 1)">Δ</text><text class="cls-7" transform="translate(203.35 146.39) scale(1.07 1)">U</text><text class="cls-8" transform="translate(238.31 153.16) scale(1.06 1)">C</text><line class="cls-9" x1="151.85" y1="92.52" x2="291.76" y2="92.52"/><text class="cls-10" transform="translate(54.24 272.49) scale(1.09 1)">μ </text><text class="cls-11" transform="translate(97.69 272.49) scale(0.88 1)">= </text><text/><text class="cls-12" transform="translate(152.03 272.73) scale(0.98 1)">R </text><text class="cls-13" transform="translate(186 286.09) scale(0.98 1)">C</text><text class="cls-2" transform="translate(249.06 272.37) scale(0.88 1)">S </text><text class="cls-2" transform="translate(208.73 283.43) scale(0.88 1)">*</text><text class="cls-2" transform="translate(50.99 455.68) scale(0.88 1)">R = </text><text/><text class="cls-3" transform="translate(224.98 495.2) scale(1.14 1)">A</text><text class="cls-4" transform="translate(179.94 488.66) scale(0.9 1)">Δ</text><text class="cls-5" transform="translate(204.36 488.66) scale(0.99 1)">I</text><text class="cls-6" transform="translate(180.02 418.56) scale(0.94 1)">Δ</text><text class="cls-7" transform="translate(203.03 418.56) scale(1.07 1)">U</text><text class="cls-3" transform="translate(237.99 425.33) scale(1.14 1)">A</text><line class="cls-9" x1="150.53" y1="440.68" x2="290.44" y2="440.68"/><text class="cls-14" transform="translate(85.25 470.04)">i</text></g></g></svg>