<svg xmlns="http://www.w3.org/2000/svg" xmlns:xlink="http://www.w3.org/1999/xlink" viewBox="0 0 408.39 702.6"><defs><style>.cls-1{fill:#a67c52;}.cls-2{fill:#fff;}.cls-3{opacity:0.77;fill:url(#Безымянный_градиент_19);}.cls-11,.cls-4,.cls-7{fill:none;}.cls-4{stroke:#f7931e;stroke-width:7px;}.cls-11,.cls-4,.cls-5,.cls-7{stroke-miterlimit:10;}.cls-11,.cls-5,.cls-7{stroke:#000;}.cls-6{fill:#603b26;}.cls-7{stroke-width:8px;}.cls-8{fill:#c1272d;}.cls-9{font-size:36px;font-family:Verdana-Bold, Verdana;font-weight:700;}.cls-10{fill:blue;opacity:0.61;}.cls-11{stroke-width:3px;}</style><radialGradient id="Безымянный_градиент_19" cx="238.75" cy="287.21" r="136.42" gradientUnits="userSpaceOnUse"><stop offset="0" stop-color="#fff"/><stop offset="0.36" stop-color="#ffd3a2"/><stop offset="0.67" stop-color="#ffb05b"/><stop offset="0.89" stop-color="#ff9b2f"/><stop offset="1" stop-color="#ff931e"/></radialGradient></defs><title>Ресурс 3</title><g id="Слой_2" data-name="Слой 2"><g id="Слой_1-2" data-name="Слой 1"><rect class="cls-1" x="63.14" y="57.27" width="345.24" height="535.01" rx="162.59"/><rect class="cls-2" x="70.73" y="63.46" width="329.66" height="522.03" rx="155.6"/><ellipse class="cls-3" cx="238.75" cy="287.21" rx="147.77" ry="73.5"/><path class="cls-4" d="M153.79,500.55c.75-2.38,6.9-21.46,14.26-21.21,8,.27,10.87,21.51,18.15,21.59,8.1.1,8.27-21.11,16.37-21s7.94,21.3,16,21.4,8.27-21.11,16.37-21,7.94,21.3,16,21.39,8.27-21.11,16.37-21,7.94,21.3,16,21.4,11.4-20.72,19.51-20.63c7.05.09,12,17.72,12.91,21,1.15,4.23,19.07,74.55-28.66,112a88,88,0,0,1-50.05,18.28c-4.2.14-31.29.59-55.51-18.28C141.49,583.15,145.48,527,153.79,500.55Z"/><rect class="cls-5" x="0.5" y="284.51" width="104.06" height="6.16"/><rect class="cls-5" x="119.57" y="284.31" width="42.53" height="6.37"/><rect class="cls-5" x="178.35" y="284.31" width="42.53" height="6.37"/><rect class="cls-5" x="235.88" y="284.31" width="42.53" height="6.37"/><rect class="cls-5" x="294.67" y="284.31" width="42.53" height="6.37"/><rect class="cls-5" x="352.2" y="284.31" width="42.53" height="6.37"/><rect class="cls-6" x="149.37" y="110.63" width="179.19" height="8.76"/><rect class="cls-6" x="182.64" y="51.24" width="111.96" height="9.48" transform="translate(294.59 -182.64) rotate(90)"/><path class="cls-7" d="M131,513.9c.2-11.26,2.4-43.27,27.63-67.22,38.89-36.91,112-35.25,150.88,1.18,24.42,22.89,28.26,52.63,28.91,64V660"/><rect class="cls-8" x="0.21" y="245.46" width="49.68" height="10.41"/><rect class="cls-8" x="0.33" y="245.44" width="49.44" height="10.47" transform="translate(275.72 225.62) rotate(90)"/><text class="cls-9" transform="translate(39.77 691.68)"> </text><ellipse class="cls-10" cx="181.48" cy="377.53" rx="18.34" ry="17.47"/><rect class="cls-2" x="170.61" y="374.75" width="22" height="6" rx="2.4"/><line class="cls-11" x1="181.15" y1="341.81" x2="181.15" y2="360.31"/><polygon class="cls-5" points="181.01 330.15 174.14 341.68 187.55 341.98 181.01 330.15"/><ellipse class="cls-10" cx="143.18" cy="287.21" rx="18.34" ry="17.47"/><rect class="cls-2" x="132.31" y="284.43" width="22" height="6" rx="2.4"/><ellipse class="cls-10" cx="308.18" cy="286.21" rx="18.34" ry="17.47"/><rect class="cls-2" x="297.31" y="283.43" width="22" height="6" rx="2.4"/><ellipse class="cls-10" cx="290.18" cy="381.21" rx="18.34" ry="17.47"/><rect class="cls-2" x="279.31" y="378.43" width="22" height="6" rx="2.4"/><line class="cls-11" x1="289.85" y1="345.49" x2="289.85" y2="363.99"/><polygon class="cls-5" points="289.71 333.83 282.84 345.36 296.25 345.66 289.71 333.83"/><ellipse class="cls-10" cx="294.5" cy="193.88" rx="18.34" ry="17.47"/><rect class="cls-2" x="283.63" y="191.1" width="22" height="6" rx="2.4"/><ellipse class="cls-10" cx="225.5" cy="286.88" rx="18.34" ry="17.47"/><rect class="cls-2" x="214.63" y="284.1" width="22" height="6" rx="2.4"/><ellipse class="cls-10" cx="181.5" cy="191.88" rx="18.34" ry="17.47"/><rect class="cls-2" x="170.63" y="189.1" width="22" height="6" rx="2.4"/><line class="cls-11" x1="181.17" y1="156.16" x2="181.17" y2="174.66"/><polygon class="cls-5" points="181.03 144.5 174.16 156.03 187.57 156.33 181.03 144.5"/><line class="cls-11" x1="294.17" y1="160.16" x2="294.17" y2="176.66"/><polygon class="cls-5" points="294.03 149.5 287.16 161.03 300.57 161.33 294.03 149.5"/></g></g></svg>