<svg xmlns="http://www.w3.org/2000/svg" xmlns:xlink="http://www.w3.org/1999/xlink" viewBox="0 0 408.39 660"><defs><style>.cls-1{fill:#a67c52;}.cls-2{fill:#fff;}.cls-3,.cls-6,.cls-9{fill:none;}.cls-3{stroke:#f7931e;stroke-width:7px;}.cls-3,.cls-4,.cls-6,.cls-7,.cls-9{stroke-miterlimit:10;}.cls-4,.cls-6,.cls-9{stroke:#000;}.cls-5{fill:#603b26;}.cls-6{stroke-width:3px;}.cls-7{opacity:0.28;fill:url(#Небо);stroke:url(#Небо-2);}.cls-8{fill:#2d2ab5;}.cls-9{stroke-width:8px;}</style><linearGradient id="Небо" x1="90.98" y1="287.21" x2="386.52" y2="287.21" gradientUnits="userSpaceOnUse"><stop offset="0" stop-color="#cce0f4"/><stop offset="0.06" stop-color="#c3dcf2"/><stop offset="0.17" stop-color="#a9d2ee"/><stop offset="0.31" stop-color="#80c2e7"/><stop offset="0.46" stop-color="#47acde"/><stop offset="0.57" stop-color="#1e9cd7"/><stop offset="0.87" stop-color="#0075be"/><stop offset="0.99" stop-color="#005b97"/></linearGradient><linearGradient id="Небо-2" x1="90.48" y1="287.21" x2="387.02" y2="287.21" xlink:href="#Небо"/></defs><title>Ресурс 1</title><g id="Слой_2" data-name="Слой 2"><g id="Слой_1-2" data-name="Слой 1"><rect class="cls-1" x="63.14" y="57.27" width="345.24" height="535.01" rx="162.59"/><rect class="cls-2" x="70.73" y="63.46" width="329.66" height="522.03" rx="155.6"/><path class="cls-3" d="M153.79,500.55c.75-2.38,6.9-21.46,14.26-21.21,8,.27,10.87,21.51,18.15,21.59,8.1.1,8.27-21.11,16.37-21s7.94,21.3,16,21.4,8.27-21.11,16.37-21,7.94,21.3,16,21.39,8.27-21.11,16.37-21,7.94,21.3,16,21.4,11.4-20.72,19.51-20.63c7.05.09,12,17.72,12.91,21,1.15,4.23,19.07,74.55-28.66,112a88,88,0,0,1-50.05,18.28c-4.2.14-31.29.59-55.51-18.28C141.49,583.15,145.48,527,153.79,500.55Z"/><rect class="cls-4" x="0.5" y="284.51" width="104.06" height="6.16"/><rect class="cls-4" x="119.57" y="284.31" width="42.53" height="6.37"/><rect class="cls-4" x="178.35" y="284.31" width="42.53" height="6.37"/><rect class="cls-4" x="235.88" y="284.31" width="42.53" height="6.37"/><rect class="cls-4" x="294.67" y="284.31" width="42.53" height="6.37"/><rect class="cls-4" x="352.2" y="284.31" width="42.53" height="6.37"/><rect class="cls-5" x="149.37" y="110.63" width="179.19" height="8.76"/><rect class="cls-5" x="182.64" y="51.24" width="111.96" height="9.48" transform="translate(294.59 -182.64) rotate(90)"/><path class="cls-6" d="M274.08,391.91c.87-7.38-2-14.51-7.12-18-6.62-4.5-16.13-2.4-21.51,5.63"/><polygon class="cls-4" points="271.07 401.48 279.89 391.57 267.67 388.56 271.07 401.48"/><path class="cls-6" d="M356.34,425.59c1.07-7.74-2-15.52-7.67-19.67-7.31-5.31-17.92-3.88-24,4.17"/><polygon class="cls-4" points="352.86 435.47 362.82 425.72 349.26 421.51 352.86 435.47"/><path class="cls-6" d="M178.2,405.66c-3.21-7.22-9.65-12-16.25-12.16-8.46-.15-16,7.41-16.52,17.9"/><polygon class="cls-4" points="180.65 416.15 183.31 401.9 170.55 406.42 180.65 416.15"/><ellipse class="cls-7" cx="238.75" cy="287.21" rx="147.77" ry="73.5"/><rect class="cls-8" x="3.61" y="254.41" width="37.79" height="12.24"/><path class="cls-9" d="M131,513.9c.2-11.26,2.4-43.27,27.63-67.22,38.89-36.91,112-35.25,150.88,1.18,24.42,22.89,28.26,52.63,28.91,64V660"/></g></g></svg>