<svg xmlns="http://www.w3.org/2000/svg" viewBox="0 0 270.51 724.5"><defs><style>.cls-1{fill:#fff;}.cls-2{fill:#404040;}.cls-10,.cls-11,.cls-14,.cls-16,.cls-17,.cls-3,.cls-4,.cls-9{fill:none;}.cls-10,.cls-3,.cls-4,.cls-7,.cls-9{stroke:#000;}.cls-15,.cls-16,.cls-3,.cls-4,.cls-7,.cls-9{stroke-miterlimit:10;}.cls-3{stroke-width:2px;}.cls-5{fill:#94938f;}.cls-6{fill:#ebebeb;}.cls-7{fill:gray;}.cls-8{fill:#b0a59b;}.cls-10,.cls-9{stroke-width:0.6px;}.cls-10,.cls-11,.cls-14,.cls-16{stroke-linecap:round;}.cls-10,.cls-11,.cls-14{stroke-linejoin:round;}.cls-11,.cls-14{stroke:#bf2652;}.cls-11{stroke-width:3px;}.cls-12{fill:#ffac61;}.cls-13{fill:#f4ed76;}.cls-14{stroke-width:4px;}.cls-15,.cls-16{stroke:#ff0;}.cls-15{stroke-width:0.25px;}</style></defs><title>Триод Строение</title><g id="Слой_2" data-name="Слой 2"><g id="Слой_1-2" data-name="Слой 1"><ellipse class="cls-1" cx="135.62" cy="509.18" rx="131.5" ry="70.81"/><path class="cls-2" d="M176.54,664.46v35.78c0-1.41-1.94-2.56-4.33-2.56s-4.34,1.15-4.34,2.56V664.46c0,1.41,1.94,2.55,4.34,2.55S176.54,665.87,176.54,664.46Z"/><ellipse class="cls-2" cx="172.21" cy="664.46" rx="4.34" ry="2.56"/><ellipse class="cls-2" cx="172.21" cy="700.24" rx="4.34" ry="2.56"/><path class="cls-2" d="M222.32,668.18v37.73c0-1.49-1.57-2.7-3.52-2.7s-3.53,1.21-3.53,2.7V668.18c0,1.48,1.58,2.69,3.53,2.69S222.32,669.66,222.32,668.18Z"/><ellipse class="cls-2" cx="218.8" cy="668.18" rx="3.53" ry="2.7"/><ellipse class="cls-2" cx="218.8" cy="705.91" rx="3.53" ry="2.7"/><path class="cls-2" d="M67,660.78v43.07c0-1.7-2.07-3.08-4.62-3.08s-4.62,1.38-4.62,3.08V660.78c0,1.7,2.07,3.07,4.62,3.07S67,662.48,67,660.78Z"/><ellipse class="cls-2" cx="62.38" cy="660.78" rx="4.62" ry="3.08"/><ellipse class="cls-2" cx="62.38" cy="703.85" rx="4.62" ry="3.08"/><path class="cls-2" d="M160.93,667.81v52.91c0-2.09-2.11-3.78-4.71-3.78s-4.71,1.69-4.71,3.78V667.81c0,2.09,2.11,3.78,4.71,3.78S160.93,669.9,160.93,667.81Z"/><ellipse class="cls-2" cx="156.22" cy="667.81" rx="4.71" ry="3.78"/><ellipse class="cls-2" cx="156.22" cy="720.72" rx="4.71" ry="3.78"/><path class="cls-2" d="M129.14,667.81v52.91c0-2.09-2.07-3.78-4.62-3.78s-4.62,1.69-4.62,3.78V667.81c0,2.09,2.07,3.78,4.62,3.78S129.14,669.9,129.14,667.81Z"/><ellipse class="cls-2" cx="124.52" cy="667.81" rx="4.62" ry="3.78"/><ellipse class="cls-2" cx="124.52" cy="720.72" rx="4.62" ry="3.78"/><path d="M267.12,509.18v102.6l-.43.06c-2.88-19.42-20.32-36.63-46.43-48.47C248.91,550.38,267.12,530.93,267.12,509.18Z"/><path d="M266.69,611.84a37.59,37.59,0,0,1,.43,5.72c0,39.11-58.87,70.81-131.5,70.81S4.11,656.67,4.11,617.56c0-21.75,18.21-41.2,46.9-54.18C73.88,573.76,103.39,580,135.62,580s61.75-6.24,84.62-16.62h0C246.37,575.21,263.81,592.42,266.69,611.84Z"/><path d="M4.11,509.18c0,21.75,18.23,41.21,46.9,54.2-28.69,13-46.9,32.43-46.9,54.18Z"/><path class="cls-3" d="M4.11,504.84V619"/><path class="cls-3" d="M220.24,563.37C197.37,573.75,167.84,580,135.62,580S73.88,573.76,51,563.38c-28.67-13-46.9-32.45-46.9-54.2,0-39.11,58.88-70.81,131.51-70.81s131.5,31.7,131.5,70.81c0,21.75-18.21,41.2-46.86,54.19"/><path class="cls-3" d="M219.69,563.11l.55.26h0c26.11,11.84,43.55,29,46.43,48.47a37.59,37.59,0,0,1,.43,5.72c0,39.11-58.87,70.81-131.5,70.81S4.11,656.67,4.11,617.56c0-21.75,18.21-41.2,46.9-54.18a3.39,3.39,0,0,1,.39-.18"/><path class="cls-3" d="M267.12,611.78V509.18"/><path class="cls-4" d="M3.41,519.75.5,122.1C.5,54.94,60.83.5,135.26.5h0C209.68.5,270,54.94,270,122.1L267.1,531.58C259.14,525.21,13.41,516.87,3.41,519.75Z"/><ellipse class="cls-5" cx="135.62" cy="509.18" rx="131.5" ry="70.81"/><ellipse class="cls-6" cx="135.62" cy="508.46" rx="127.17" ry="65.75"/><path class="cls-2" d="M55.93,465.84v43.07a3.54,3.54,0,0,0-7,0V465.84a3.54,3.54,0,0,0,7,0Z"/><ellipse class="cls-2" cx="52.42" cy="465.84" rx="3.51" ry="3.08"/><ellipse class="cls-2" cx="52.42" cy="508.91" rx="3.51" ry="3.08"/><path class="cls-2" d="M224.92,475.74v32.87a3,3,0,0,0-5.87,0V475.74a3,3,0,0,0,5.87,0Z"/><ellipse class="cls-2" cx="221.99" cy="475.74" rx="2.93" ry="2.35"/><ellipse class="cls-2" cx="221.99" cy="508.61" rx="2.93" ry="2.35"/><path class="cls-7" d="M45.28,420.33l-2-249.58c0-42.15,41.45-76.32,92.59-76.32h0c51.13,0,92.58,34.17,92.58,76.32-.67,85.67-.95,164.09-1.62,249.76-17.56-34.46-50.11-43-87.59-43.56C100.83,376.41,63.34,385.06,45.28,420.33Z"/><path class="cls-8" d="M229.52,164.6c.24,50.62-1,101.85-.78,152.47q.36,76.47.78,152.85c-4.94,6.3-11.9,8.47-16.34,13.19-.78-3.37-3.46-57.18,4.44-85.51,1-4.2-1-8.39-2-12.59-2-12.59-6.92-24.13-7.91-36.72-2-32.53,7.91-66.1-2-97.58-5.66-18.05-13.08-27.33-13.83-49.31-.06-1.8-.7-26.21,8.4-29.91.54-.21.2,0,8.89-1.05,7-.84,9.24-1.22,11.85-2.1A53.71,53.71,0,0,0,229.52,164.6Z"/><path class="cls-8" d="M72.27,173c9.07,4,8.61,23.69,8.4,29.91-.74,22-8.17,31.26-13.83,49.31-9.88,31.48,0,65-2,97.58-1,12.59-5.92,24.13-7.9,36.72-1,4.2-3,8.39-2,12.59,7.91,28.33,5.23,82.14,4.45,85.51-4.45-4.72-11.36-6.82-16.3-13.11q.73-76.46.74-152.93,0-77.51-.74-155a21.75,21.75,0,0,0,8.4,6.3c1.61.66,3.17,1,11.85,2.09S71.71,172.74,72.27,173Z"/><path class="cls-9" d="M72.27,173c9.07,4,8.61,23.69,8.4,29.91-.74,22-8.17,31.26-13.83,49.31-9.88,31.48,0,65-2,97.58-1,12.59-5.92,24.13-7.9,36.72-1,4.2-3,8.39-2,12.59,7.91,28.33,5.23,82.14,4.45,85.51-4.45-4.72-11.36-6.82-16.3-13.11q.73-76.46.74-152.93,0-77.51-.74-155a21.75,21.75,0,0,0,8.4,6.3c1.61.66,3.17,1,11.85,2.09S71.71,172.74,72.27,173Z"/><path class="cls-10" d="M200.34,171.49c-9.1,3.7-8.46,28.11-8.4,29.91.75,22,8.17,31.26,13.83,49.31,9.88,31.48,0,65,2,97.58,1,12.59,5.93,24.13,7.91,36.72,1,4.2,3,8.39,2,12.59-7.9,28.33-5.22,82.14-4.44,85.51,4.44-4.72,11.4-6.89,16.34-13.19q-.37-76.46-.78-152.85c-.25-50.62,1-101.85.78-152.47a53.71,53.71,0,0,1-8.44,3.74c-2.61.88-4.84,1.26-11.85,2.1C200.54,171.5,200.88,171.28,200.34,171.49Z"/><path class="cls-2" d="M128,487v32.88a3,3,0,0,0-5.87,0V487a3,3,0,0,0,5.87,0Z"/><ellipse class="cls-2" cx="125.04" cy="486.96" rx="2.93" ry="2.35"/><ellipse class="cls-2" cx="125.04" cy="519.84" rx="2.93" ry="2.35"/><path class="cls-2" d="M173.19,487.17V523c0-1.41-1.94-2.56-4.33-2.56s-4.34,1.15-4.34,2.56V487.17c0,1.41,1.94,2.55,4.34,2.55S173.19,488.58,173.19,487.17Z"/><ellipse class="cls-2" cx="168.86" cy="487.17" rx="4.34" ry="2.56"/><ellipse class="cls-2" cx="168.86" cy="522.95" rx="4.34" ry="2.56"/><path class="cls-2" d="M151.55,486.9v32.88a3,3,0,0,0-5.87,0V486.93a3,3,0,0,0,5.87,0Z"/><path class="cls-2" d="M145.68,486.93v0a3,3,0,1,1,2.93,2.35A2.69,2.69,0,0,1,145.68,486.9Z"/><ellipse class="cls-2" cx="148.61" cy="519.78" rx="2.93" ry="2.35"/><path class="cls-11" d="M169,486.39c2.45-4.25,1.91-10.41-.41-14.58a10.29,10.29,0,0,0-8-5.46"/><path class="cls-12" d="M163.61,214.29V476c0-10.32-12.09-18.69-27-18.69s-27,8.37-27,18.69V214.29c0,10.32,12.09,18.69,27,18.69S163.61,224.61,163.61,214.29Z"/><ellipse class="cls-13" cx="136.61" cy="214.29" rx="27" ry="18.7"/><ellipse class="cls-12" cx="136.61" cy="476.03" rx="27" ry="18.7"/><path class="cls-14" d="M107.44,257.21c3.43,1.31,18.24,6.51,34.68,0,4.14-1.63,19.51-7.72,24.57-23.83C170,222.8,169,207.47,158,198.32c-12-9.91-32-9.46-46.25,2.81"/><ellipse class="cls-15" cx="118.29" cy="213.25" rx="4.45" ry="3.62"/><ellipse class="cls-15" cx="157.26" cy="213.25" rx="4.45" ry="3.62"/><path class="cls-16" d="M158,213.48c-.66-17.11-1.09-31.32-1.36-41.5-1-36.38-1.17-67.12-2.51-67.17a.15.15,0,0,0-.07,0c-2.43,1.78-3.1,36.86-3.45,37.24-1.12,1.21-1.65-37.29-2.7-37.29s-1.64,37.29-2.87,37.29-2.23-38.6-3.28-37.35-2.22,37.36-3.4,37.35-1.45-37.39-2.76-37.4-2.29,37.4-3.92,37.4-2.53-37.48-3.77-37.47S126.64,142,125,142.08s-2.23-37.39-4.78-37.53c-.79,0-.4,20-1.25,65.27-.91,48.2-.87,43.32-.87,43.32h0"/><path class="cls-16" d="M155.17,150.79a.09.09,0,0,0-.07,0c-2.56,1.78-3.24,36.85-3.62,37.24-1.17,1.2-1.74-37.3-2.85-37.3s-1.7,37.29-3,37.29-2.36-38.6-3.47-37.35-2.31,37.36-3.55,37.35-1.54-37.39-2.91-37.4-2.4,37.4-4.11,37.4-2.67-37.48-4-37.47-1.29,37.43-3,37.46-2.35-37.39-5-37.53"/><path class="cls-11" d="M107.44,283c10.6,9,27.88,10.42,40.46,5.78,15.14-5.58,17.91-18,18.79-20.23"/><path class="cls-11" d="M106.33,314.82c10.6,9,27.88,10.42,40.46,5.78,15.14-5.58,17.91-18,18.79-20.23"/><path class="cls-11" d="M107.78,381.51c10.6,9,27.88,10.42,40.46,5.78,15.14-5.58,17.91-18,18.79-20.23"/><path class="cls-11" d="M106.33,346.83c10.6,9,27.88,10.42,40.46,5.78,15.14-5.58,17.91-18,18.79-20.23"/><path class="cls-11" d="M107.05,450.88c10.6,9,27.88,10.42,40.47,5.78,15.13-5.58,17.91-18,18.78-20.24"/><path class="cls-11" d="M105.61,416.19c10.6,9.05,27.88,10.42,40.46,5.78,15.14-5.58,17.91-18,18.79-20.23"/><line class="cls-17" x1="11.34" y1="494.73" x2="99.49" y2="571.32"/></g></g></svg>