<svg xmlns="http://www.w3.org/2000/svg" viewBox="0 0 733.65 378.51"><defs><style>.cls-1,.cls-2,.cls-4{fill:none;}.cls-2,.cls-3,.cls-4,.cls-5,.cls-6{stroke:#000;stroke-miterlimit:10;}.cls-2,.cls-5{stroke-width:2px;}.cls-3,.cls-5{fill:#fff;}.cls-7{font-size:35.05px;font-family:Verdana;}.cls-8{font-size:29.91px;font-family:Verdana-Italic, Verdana;font-style:italic;}</style></defs><title>Ресурс 8</title><g id="Слой_2" data-name="Слой 2"><g id="Слой_1-2" data-name="Слой 1"><line class="cls-1" x1="583.51" y1="35.01" x2="733.65" y2="35.01"/><line class="cls-2" x1="634.13" y1="36.63" x2="308.64" y2="35.54"/><line class="cls-2" x1="633.33" y1="128.94" x2="632.97" y2="37.73"/><line class="cls-3" x1="74.17" y1="353.53" x2="74.17" y2="376.87"/><polyline class="cls-2" points="13.13 364.09 13.13 376.87 74.87 376.87 199.75 377.51 634.73 377.51 634.73 238.21"/><line class="cls-2" x1="643.15" y1="265.68" x2="668.4" y2="265.68"/><line class="cls-2" x1="655.98" y1="278.46" x2="655.98" y2="253.21"/><line class="cls-2" x1="643.85" y1="110.41" x2="669.11" y2="110.41"/><line class="cls-2" x1="309.8" y1="34.45" x2="309.2" y2="136.61"/><line class="cls-4" x1="268.5" y1="136.61" x2="268.5" y2="136.61"/><line class="cls-4" x1="281.13" y1="136.61" x2="335.86" y2="136.61"/><ellipse class="cls-3" cx="471.96" cy="35.64" rx="38.59" ry="35.14"/><ellipse class="cls-3" cx="472.41" cy="35.62" rx="34.73" ry="31.63"/><path class="cls-5" d="M286.21,270.55c-.17-.95-1.59-10.25,8.06-16.36,9.49-6,25-5.94,34.25,0,8.11,5.2,8.07,12.76,8,14.07"/><path class="cls-2" d="M336.55,268.26V377.51"/><path class="cls-2" d="M375.14,193.8c.17,36,.28,58.46-18.24,77.78-4.08,4.26-21.66,22.59-47.7,22.22-23.1-.33-38.66-15.15-43.5-19.76-21.7-20.65-22-47-22.45-80.24-.43-33.7-.74-58.75,19.64-79,4.36-4.33,21.11-21,46.31-21s42,16.74,46.3,21C374.86,134.09,375,157.34,375.14,193.8Z"/><path class="cls-2" d="M258,192.2H199.75V377.51"/><rect class="cls-6" x="251.67" y="190.28" width="33.68" height="5.11"/><rect class="cls-6" x="293.76" y="190.28" width="33.68" height="5.11"/><rect class="cls-6" x="334.45" y="190.28" width="33.68" height="5.11"/><rect class="cls-6" x="281.13" y="131.49" width="56.13" height="5.11"/><ellipse class="cls-3" cx="200.27" cy="283.96" rx="33.86" ry="30.84"/><ellipse class="cls-3" cx="200.4" cy="283.94" rx="30.22" ry="27.75"/><line class="cls-4" x1="586.61" y1="129.31" x2="680.6" y2="129.31"/><rect class="cls-6" x="605.12" y="137.33" width="56.96" height="6.42"/><line class="cls-4" x1="587.74" y1="203.32" x2="681.73" y2="203.32"/><rect class="cls-6" x="606.26" y="211.34" width="56.96" height="6.42"/><line class="cls-4" x1="587.74" y1="177.66" x2="681.73" y2="177.66"/><rect class="cls-6" x="606.26" y="185.68" width="56.96" height="6.42"/><line class="cls-4" x1="586.32" y1="153.61" x2="680.31" y2="153.61"/><rect class="cls-6" x="604.83" y="161.63" width="56.96" height="6.42"/><line class="cls-4" x1="586.7" y1="227.07" x2="680.69" y2="227.07"/><rect class="cls-6" x="605.22" y="235.09" width="56.96" height="6.42"/><polyline class="cls-2" points="199.75 192.2 132.1 192.2 132.1 282.3 105.03 282.3"/><polygon class="cls-2" points="90.69 282.42 105.03 289.96 105.03 274.88 90.69 282.42"/><rect class="cls-2" x="59.43" y="219.67" width="29.47" height="123.56"/><rect class="cls-5" x="48.21" y="209.45" width="51.92" height="10.4"/><rect class="cls-5" x="47.88" y="343.13" width="51.92" height="10.4"/><polyline class="cls-2" points="74.17 209.45 74.17 178.14 8.22 178.14 8.22 195.53"/><ellipse class="cls-3" cx="8.22" cy="201.14" rx="7.72" ry="7.03"/><ellipse class="cls-3" cx="13.13" cy="356.42" rx="8.42" ry="7.67"/><text class="cls-7" transform="translate(185.02 297.87) scale(1.23 1)">V</text><text class="cls-8" transform="translate(448.09 45.49) scale(0.99 1)">mA</text></g></g></svg>