<svg xmlns="http://www.w3.org/2000/svg" viewBox="0 0 408.39 674.42"><defs><style>.cls-1{font-size:36px;font-family:Verdana-Bold, Verdana;font-weight:700;}.cls-2{fill:#a67c52;}.cls-3{fill:#fff;}.cls-4,.cls-7{fill:none;}.cls-4{stroke:#f7931e;stroke-width:7px;}.cls-4,.cls-5,.cls-7{stroke-miterlimit:10;}.cls-5,.cls-7{stroke:#000;}.cls-6{fill:#603b26;}.cls-7{stroke-width:8px;}</style></defs><title>Ресурс 7</title><g id="Слой_2" data-name="Слой 2"><g id="Слой_1-2" data-name="Слой 1"><text class="cls-1" transform="translate(39.45 591.68)"> </text><rect class="cls-2" x="63.14" y="71.68" width="345.24" height="535.01" rx="162.59"/><rect class="cls-3" x="70.73" y="77.88" width="329.66" height="522.03" rx="155.6"/><path class="cls-4" d="M153.79,515c.75-2.37,6.9-21.45,14.26-21.2,8,.27,10.87,21.5,18.15,21.59,8.1.1,8.27-21.11,16.37-21s7.94,21.3,16,21.39,8.27-21.1,16.37-21,7.94,21.3,16,21.4,8.27-21.11,16.37-21,7.94,21.3,16,21.4,11.4-20.73,19.51-20.63c7.05.08,12,17.72,12.91,21,1.15,4.22,19.07,74.55-28.66,112a88,88,0,0,1-50.05,18.28c-4.2.13-31.29.59-55.51-18.28C141.49,597.57,145.48,541.38,153.79,515Z"/><rect class="cls-5" x="0.5" y="298.93" width="104.06" height="6.16"/><rect class="cls-5" x="119.57" y="298.72" width="42.53" height="6.37"/><rect class="cls-5" x="178.35" y="298.72" width="42.53" height="6.37"/><rect class="cls-5" x="235.88" y="298.72" width="42.53" height="6.37"/><rect class="cls-5" x="294.67" y="298.72" width="42.53" height="6.37"/><rect class="cls-5" x="352.2" y="298.72" width="42.53" height="6.37"/><rect class="cls-6" x="149.37" y="125.88" width="179.19" height="7.93"/><rect class="cls-6" x="175.93" y="57.94" width="127.08" height="11.19" transform="translate(303.01 -175.93) rotate(90)"/><path class="cls-7" d="M131,528.32c.2-11.26,2.4-43.27,27.63-67.22,38.89-36.91,112-35.26,150.88,1.17,24.42,22.89,28.26,52.63,28.91,64V674.42"/></g></g></svg>